<svg xmlns="http://www.w3.org/2000/svg" viewBox="0 0 1440 320"><path fill="#a2d9ff" fill-opacity="1" d="M0,96L10.9,112C21.8,128,44,160,65,176C87.3,192,109,192,131,208C152.7,224,175,256,196,240C218.2,224,240,160,262,128C283.6,96,305,96,327,122.7C349.1,149,371,203,393,213.3C414.5,224,436,192,458,197.3C480,203,502,245,524,224C545.5,203,567,117,589,112C610.9,107,633,181,655,208C676.4,235,698,213,720,224C741.8,235,764,277,785,298.7C807.3,320,829,320,851,304C872.7,288,895,256,916,245.3C938.2,235,960,245,982,256C1003.6,267,1025,277,1047,256C1069.1,235,1091,181,1113,181.3C1134.5,181,1156,235,1178,234.7C1200,235,1222,181,1244,170.7C1265.5,160,1287,192,1309,213.3C1330.9,235,1353,245,1375,240C1396.4,235,1418,213,1429,202.7L1440,192L1440,320L1429.1,320C1418.2,320,1396,320,1375,320C1352.7,320,1331,320,1309,320C1287.3,320,1265,320,1244,320C1221.8,320,1200,320,1178,320C1156.4,320,1135,320,1113,320C1090.9,320,1069,320,1047,320C1025.5,320,1004,320,982,320C960,320,938,320,916,320C894.5,320,873,320,851,320C829.1,320,807,320,785,320C763.6,320,742,320,720,320C698.2,320,676,320,655,320C632.7,320,611,320,589,320C567.3,320,545,320,524,320C501.8,320,480,320,458,320C436.4,320,415,320,393,320C370.9,320,349,320,327,320C305.5,320,284,320,262,320C240,320,218,320,196,320C174.5,320,153,320,131,320C109.1,320,87,320,65,320C43.6,320,22,320,11,320L0,320Z"></path></svg>